{
  "accessors": [
    {
      "bufferView": 2,
      "componentType": 5126,
      "count": 3050,
      "max": [
        113.874267578125,
        -1.9601898193359375,
        272.2936706542969
      ],
      "min": [
        -113.87417602539063,
        -335.8950500488281,
        -272.2935485839844
      ],
      "type": "VEC3"
    },
    {
      "bufferView": 2,
      "byteOffset": 36600,
      "componentType": 5126,
      "count": 3050,
      "max": [
        1.0,
        1.0,
        1.0
      ],
      "min": [
        -1.0,
        -1.0,
        -1.0
      ],
      "type": "VEC3"
    },
    {
      "bufferView": 1,
      "componentType": 5126,
      "count": 3050,
      "max": [
        0.9982926845550537,
        0.995818555355072
      ],
      "min": [
        0.007998405955731869,
        0.0026808471884578466
      ],
      "type": "VEC2"
    },
    {
      "bufferView": 0,
      "componentType": 5125,
      "count": 6285,
      "type": "SCALAR"
    },
    {
      "bufferView": 2,
      "byteOffset": 73200,
      "componentType": 5126,
      "count": 2050,
      "max": [
        148.5570831298828,
        -0.0121917724609375,
        519.3397216796875
      ],
      "min": [
        -148.55709838867188,
        -404.01177978515625,
        -519.339599609375
      ],
      "type": "VEC3"
    },
    {
      "bufferView": 2,
      "byteOffset": 97800,
      "componentType": 5126,
      "count": 2050,
      "max": [
        1.0,
        1.0,
        1.0
      ],
      "min": [
        -1.0,
        -1.0,
        -1.0
      ],
      "type": "VEC3"
    },
    {
      "bufferView": 1,
      "byteOffset": 24400,
      "componentType": 5126,
      "count": 2050,
      "max": [
        0.9966076612472534,
        0.9951221942901611
      ],
      "min": [
        0.0015512191457673907,
        0.0017055422067642212
      ],
      "type": "VEC2"
    },
    {
      "bufferView": 0,
      "byteOffset": 25140,
      "componentType": 5125,
      "count": 4002,
      "type": "SCALAR"
    },
    {
      "bufferView": 2,
      "byteOffset": 122400,
      "componentType": 5126,
      "count": 2608,
      "max": [
        121.57925415039063,
        -1.031463623046875,
        441.13067626953125
      ],
      "min": [
        -121.5792236328125,
        -437.89971923828125,
        -441.130615234375
      ],
      "type": "VEC3"
    },
    {
      "bufferView": 2,
      "byteOffset": 153696,
      "componentType": 5126,
      "count": 2608,
      "max": [
        1.0,
        1.0,
        1.0
      ],
      "min": [
        -1.0,
        -1.0,
        -1.0
      ],
      "type": "VEC3"
    },
    {
      "bufferView": 1,
      "byteOffset": 40800,
      "componentType": 5126,
      "count": 2608,
      "max": [
        0.9999863505363464,
        0.9992493987083435
      ],
      "min": [
        1.3873737771064043e-05,
        0.0037734247744083405
      ],
      "type": "VEC2"
    },
    {
      "bufferView": 0,
      "byteOffset": 41148,
      "componentType": 5125,
      "count": 6258,
      "type": "SCALAR"
    }
  ],
  "asset": {
    "extras": {
      "author": "Sea Land Air (https://sketchfab.com/sealandair)",
      "license": "CC-BY-4.0 (http://creativecommons.org/licenses/by/4.0/)",
      "source": "https://sketchfab.com/3d-models/edward-the-blue-engine-k2-acc51505900440638708f49ecd0e6f05",
      "title": "Edward the Blue Engine K2"
    },
    "generator": "Sketchfab-13.31.0",
    "version": "2.0"
  },
  "bufferViews": [
    {
      "buffer": 0,
      "byteLength": 66180,
      "name": "floatBufferViews",
      "target": 34963
    },
    {
      "buffer": 0,
      "byteLength": 61664,
      "byteOffset": 66180,
      "byteStride": 8,
      "name": "floatBufferViews",
      "target": 34962
    },
    {
      "buffer": 0,
      "byteLength": 184992,
      "byteOffset": 127844,
      "byteStride": 12,
      "name": "floatBufferViews",
      "target": 34962
    }
  ],
  "buffers": [
    {
      "byteLength": 312836,
      "uri": "scene.bin"
    }
  ],
  "images": [
    {
      "uri": "textures/Material_26_baseColor.png"
    },
    {
      "uri": "textures/Material_27_baseColor.png"
    },
    {
      "uri": "textures/Material_25_baseColor.png"
    }
  ],
  "materials": [
    {
      "doubleSided": true,
      "name": "Material_26",
      "pbrMetallicRoughness": {
        "baseColorTexture": {
          "index": 0
        },
        "metallicFactor": 0.0,
        "roughnessFactor": 0.6
      }
    },
    {
      "doubleSided": true,
      "name": "Material_27",
      "pbrMetallicRoughness": {
        "baseColorTexture": {
          "index": 1
        },
        "metallicFactor": 0.0,
        "roughnessFactor": 0.6
      }
    },
    {
      "doubleSided": true,
      "name": "Material_25",
      "pbrMetallicRoughness": {
        "baseColorTexture": {
          "index": 2
        },
        "metallicFactor": 0.0,
        "roughnessFactor": 0.6
      }
    }
  ],
  "meshes": [
    {
      "name": "tender_Material #26_0",
      "primitives": [
        {
          "attributes": {
            "NORMAL": 1,
            "POSITION": 0,
            "TEXCOORD_0": 2
          },
          "indices": 3,
          "material": 0,
          "mode": 4
        }
      ]
    },
    {
      "name": "stroudley_Material #27_0",
      "primitives": [
        {
          "attributes": {
            "NORMAL": 5,
            "POSITION": 4,
            "TEXCOORD_0": 6
          },
          "indices": 7,
          "material": 1,
          "mode": 4
        }
      ]
    },
    {
      "name": "edward_Material #25_0",
      "primitives": [
        {
          "attributes": {
            "NORMAL": 9,
            "POSITION": 8,
            "TEXCOORD_0": 10
          },
          "indices": 11,
          "material": 2,
          "mode": 4
        }
      ]
    }
  ],
  "nodes": [
    {
      "children": [
        1
      ],
      "matrix": [
        1.0,
        0.0,
        0.0,
        0.0,
        0.0,
        2.220446049250313e-16,
        -1.0,
        0.0,
        0.0,
        1.0,
        2.220446049250313e-16,
        0.0,
        0.0,
        0.0,
        0.0,
        1.0
      ],
      "name": "Sketchfab_model"
    },
    {
      "children": [
        2
      ],
      "matrix": [
        0.009999999776482582,
        0.0,
        0.0,
        0.0,
        0.0,
        0.0,
        0.009999999776482582,
        0.0,
        0.0,
        -0.009999999776482582,
        0.0,
        0.0,
        0.0,
        0.0,
        0.0,
        1.0
      ],
      "name": "Edward the Blue Engine K2.fbx"
    },
    {
      "children": [
        3,
        5,
        7
      ],
      "name": "RootNode"
    },
    {
      "children": [
        4
      ],
      "matrix": [
        1.0,
        0.0,
        0.0,
        0.0,
        0.0,
        -1.0,
        -1.1924880316878525e-08,
        0.0,
        0.0,
        1.1924880316878525e-08,
        -1.0,
        0.0,
        19.00067138671875,
        0.0,
        -711.9107666015625,
        1.0
      ],
      "name": "tender"
    },
    {
      "mesh": 0,
      "name": "tender_Material #26_0"
    },
    {
      "children": [
        6
      ],
      "matrix": [
        1.0,
        0.0,
        0.0,
        0.0,
        0.0,
        -1.0,
        -1.1924880316878525e-08,
        0.0,
        0.0,
        1.1924880316878525e-08,
        -1.0,
        0.0,
        19.32208251953125,
        0.0,
        -1473.86474609375,
        1.0
      ],
      "name": "stroudley"
    },
    {
      "mesh": 1,
      "name": "stroudley_Material #27_0"
    },
    {
      "children": [
        8
      ],
      "matrix": [
        1.0,
        0.0,
        0.0,
        0.0,
        0.0,
        -1.0,
        -1.1924880316878525e-08,
        0.0,
        0.0,
        1.1924880316878525e-08,
        -1.0,
        0.0,
        18.52117919921875,
        0.0,
        1.8401641845703125,
        1.0
      ],
      "name": "edward"
    },
    {
      "mesh": 2,
      "name": "edward_Material #25_0"
    }
  ],
  "samplers": [
    {
      "magFilter": 9729,
      "minFilter": 9987,
      "wrapS": 10497,
      "wrapT": 10497
    }
  ],
  "scene": 0,
  "scenes": [
    {
      "name": "Sketchfab_Scene",
      "nodes": [
        0
      ]
    }
  ],
  "textures": [
    {
      "sampler": 0,
      "source": 0
    },
    {
      "sampler": 0,
      "source": 1
    },
    {
      "sampler": 0,
      "source": 2
    }
  ]
}
