<?xml version="1.0" standalone="no"?><!DOCTYPE svg PUBLIC "-//W3C//DTD SVG 1.1//EN" "http://www.w3.org/Graphics/SVG/1.1/DTD/svg11.dtd"><svg t="1709519066372" class="icon" viewBox="0 0 1024 1024" version="1.1" xmlns="http://www.w3.org/2000/svg" p-id="5782" xmlns:xlink="http://www.w3.org/1999/xlink" width="128" height="128"><path d="M189.1 75.7H452c107.2 0 187 14.8 239.6 44.5 52.5 29.7 99.6 76.6 141.2 140.8s62.4 145.4 62.4 243.5c0 123.4-36.4 226.4-109.1 309.1s-173 124.1-300.7 124.1H189.1v-862zM388 233.9v541.2h82.8c73.2 0 127.6-27.5 163.2-82.4 35.6-54.9 53.3-119.4 53.3-193.6 0-52.2-10.2-100.5-30.5-144.9-20.3-44.4-45.5-75.6-75.6-93.5-30.1-17.9-66.3-26.9-108.6-26.9H388z" p-id="5783" fill="#0052b4"></path></svg>