{
  "accessors": [
    {
      "bufferView": 2,
      "componentType": 5126,
      "count": 118,
      "max": [
        0.5387849807739258,
        1.4083919525146484,
        0.25681400299072266
      ],
      "min": [
        -0.5387849807739258,
        -1.3381839990615845,
        0.18138499557971954
      ],
      "type": "VEC3"
    },
    {
      "bufferView": 2,
      "byteOffset": 1416,
      "componentType": 5126,
      "count": 118,
      "max": [
        1.0,
        1.0,
        1.0
      ],
      "min": [
        -1.0,
        -1.0,
        -1.0
      ],
      "type": "VEC3"
    },
    {
      "bufferView": 1,
      "componentType": 5126,
      "count": 118,
      "max": [
        0.875,
        1.0
      ],
      "min": [
        0.125,
        0.0
      ],
      "type": "VEC2"
    },
    {
      "bufferView": 0,
      "componentType": 5125,
      "count": 192,
      "type": "SCALAR"
    },
    {
      "bufferView": 2,
      "byteOffset": 2832,
      "componentType": 5126,
      "count": 1902,
      "max": [
        0.7003759741783142,
        1.4435019493103027,
        1.381147027015686
      ],
      "min": [
        -0.7003759741783142,
        -1.3913010358810425,
        0.19857600331306458
      ],
      "type": "VEC3"
    },
    {
      "bufferView": 2,
      "byteOffset": 25656,
      "componentType": 5126,
      "count": 1902,
      "max": [
        1.0,
        1.0,
        1.0
      ],
      "min": [
        -1.0,
        -1.0,
        -1.0
      ],
      "type": "VEC3"
    },
    {
      "bufferView": 1,
      "byteOffset": 944,
      "componentType": 5126,
      "count": 1902,
      "max": [
        0.875,
        1.0
      ],
      "min": [
        0.0,
        0.0
      ],
      "type": "VEC2"
    },
    {
      "bufferView": 0,
      "byteOffset": 768,
      "componentType": 5125,
      "count": 4968,
      "type": "SCALAR"
    },
    {
      "bufferView": 2,
      "byteOffset": 48480,
      "componentType": 5126,
      "count": 308,
      "max": [
        0.5477169752120972,
        1.4455039501190186,
        0.43086200952529907
      ],
      "min": [
        -0.5477169752120972,
        -1.244035005569458,
        0.2952359914779663
      ],
      "type": "VEC3"
    },
    {
      "bufferView": 2,
      "byteOffset": 52176,
      "componentType": 5126,
      "count": 308,
      "max": [
        1.0,
        0.9980177283287048,
        1.0
      ],
      "min": [
        -1.0,
        -0.9721904993057251,
        -1.0
      ],
      "type": "VEC3"
    },
    {
      "bufferView": 1,
      "byteOffset": 16160,
      "componentType": 5126,
      "count": 308,
      "max": [
        1.0,
        0.9870989918708801
      ],
      "min": [
        0.0,
        0.009999999776482582
      ],
      "type": "VEC2"
    },
    {
      "bufferView": 0,
      "byteOffset": 20640,
      "componentType": 5125,
      "count": 1344,
      "type": "SCALAR"
    },
    {
      "bufferView": 2,
      "byteOffset": 55872,
      "componentType": 5126,
      "count": 292,
      "max": [
        0.4742240011692047,
        -1.4021739959716797,
        0.5087980031967163
      ],
      "min": [
        -0.4742240011692047,
        -1.449489951133728,
        0.401203989982605
      ],
      "type": "VEC3"
    },
    {
      "bufferView": 2,
      "byteOffset": 59376,
      "componentType": 5126,
      "count": 292,
      "max": [
        1.0,
        0.9721904993057251,
        1.0
      ],
      "min": [
        -1.0,
        -0.9980177283287048,
        -1.0
      ],
      "type": "VEC3"
    },
    {
      "bufferView": 1,
      "byteOffset": 18624,
      "componentType": 5126,
      "count": 292,
      "max": [
        1.0,
        0.75
      ],
      "min": [
        0.0,
        0.009999999776482582
      ],
      "type": "VEC2"
    },
    {
      "bufferView": 0,
      "byteOffset": 26016,
      "componentType": 5125,
      "count": 1320,
      "type": "SCALAR"
    },
    {
      "bufferView": 2,
      "byteOffset": 62880,
      "componentType": 5126,
      "count": 3668,
      "max": [
        0.6753469705581665,
        1.4254430532455444,
        1.286895990371704
      ],
      "min": [
        -0.6753469705581665,
        -1.4347319602966309,
        0.06983699649572372
      ],
      "type": "VEC3"
    },
    {
      "bufferView": 2,
      "byteOffset": 106896,
      "componentType": 5126,
      "count": 3668,
      "max": [
        1.0,
        1.0,
        1.0
      ],
      "min": [
        -1.0,
        -1.0,
        -1.0
      ],
      "type": "VEC3"
    },
    {
      "bufferView": 1,
      "byteOffset": 20960,
      "componentType": 5126,
      "count": 3668,
      "max": [
        1.0,
        1.0
      ],
      "min": [
        0.0,
        0.0
      ],
      "type": "VEC2"
    },
    {
      "bufferView": 0,
      "byteOffset": 31296,
      "componentType": 5125,
      "count": 9846,
      "type": "SCALAR"
    },
    {
      "bufferView": 2,
      "byteOffset": 150912,
      "componentType": 5126,
      "count": 188,
      "max": [
        0.5770339965820313,
        1.4667749404907227,
        0.6202600002288818
      ],
      "min": [
        -0.5913469791412354,
        -1.440845012664795,
        0.19737699627876282
      ],
      "type": "VEC3"
    },
    {
      "bufferView": 2,
      "byteOffset": 153168,
      "componentType": 5126,
      "count": 188,
      "max": [
        1.0,
        1.0,
        1.0
      ],
      "min": [
        -1.0,
        -1.0,
        -1.0
      ],
      "type": "VEC3"
    },
    {
      "bufferView": 1,
      "byteOffset": 50304,
      "componentType": 5126,
      "count": 188,
      "max": [
        0.875,
        1.0
      ],
      "min": [
        0.125,
        0.0
      ],
      "type": "VEC2"
    },
    {
      "bufferView": 0,
      "byteOffset": 70680,
      "componentType": 5125,
      "count": 408,
      "type": "SCALAR"
    },
    {
      "bufferView": 2,
      "byteOffset": 155424,
      "componentType": 5126,
      "count": 2405,
      "max": [
        0.6724460124969482,
        0.807191014289856,
        0.9805629849433899
      ],
      "min": [
        -0.6724460124969482,
        -1.4055960178375244,
        0.15356899797916412
      ],
      "type": "VEC3"
    },
    {
      "bufferView": 2,
      "byteOffset": 184284,
      "componentType": 5126,
      "count": 2405,
      "max": [
        1.0,
        1.0,
        1.0
      ],
      "min": [
        -1.0,
        -1.0,
        -1.0
      ],
      "type": "VEC3"
    },
    {
      "bufferView": 1,
      "byteOffset": 51808,
      "componentType": 5126,
      "count": 2405,
      "max": [
        1.0,
        1.0
      ],
      "min": [
        0.0,
        0.0
      ],
      "type": "VEC2"
    },
    {
      "bufferView": 0,
      "byteOffset": 72312,
      "componentType": 5125,
      "count": 9000,
      "type": "SCALAR"
    },
    {
      "bufferView": 2,
      "byteOffset": 213144,
      "componentType": 5126,
      "count": 3376,
      "max": [
        0.4953329861164093,
        0.9544820189476013,
        0.4587250053882599
      ],
      "min": [
        -0.4953329861164093,
        -1.172489047050476,
        0.00032900000223889947
      ],
      "type": "VEC3"
    },
    {
      "bufferView": 2,
      "byteOffset": 253656,
      "componentType": 5126,
      "count": 3376,
      "max": [
        1.0,
        1.0,
        1.0
      ],
      "min": [
        -1.0,
        -1.0,
        -1.0
      ],
      "type": "VEC3"
    },
    {
      "bufferView": 1,
      "byteOffset": 71048,
      "componentType": 5126,
      "count": 3376,
      "max": [
        1.0,
        1.0
      ],
      "min": [
        0.0,
        0.018780000507831573
      ],
      "type": "VEC2"
    },
    {
      "bufferView": 0,
      "byteOffset": 108312,
      "componentType": 5125,
      "count": 13776,
      "type": "SCALAR"
    },
    {
      "bufferView": 2,
      "byteOffset": 294168,
      "componentType": 5126,
      "count": 4,
      "max": [
        0.06973899900913239,
        1.4273170232772827,
        0.34440600872039795
      ],
      "min": [
        -0.060986001044511795,
        1.4273170232772827,
        0.2760249972343445
      ],
      "type": "VEC3"
    },
    {
      "bufferView": 2,
      "byteOffset": 294216,
      "componentType": 5126,
      "count": 4,
      "max": [
        -0.0,
        1.0,
        -0.0
      ],
      "min": [
        -0.0,
        1.0,
        -0.0
      ],
      "type": "VEC3"
    },
    {
      "bufferView": 1,
      "byteOffset": 98056,
      "componentType": 5126,
      "count": 4,
      "max": [
        0.6125419735908508,
        0.4931580126285553
      ],
      "min": [
        0.3874579966068268,
        0.2568419873714447
      ],
      "type": "VEC2"
    },
    {
      "bufferView": 0,
      "byteOffset": 163416,
      "componentType": 5125,
      "count": 6,
      "type": "SCALAR"
    },
    {
      "bufferView": 2,
      "byteOffset": 294264,
      "componentType": 5126,
      "count": 114,
      "max": [
        0.6892480254173279,
        1.4083410501480103,
        1.192973017692566
      ],
      "min": [
        -0.6892480254173279,
        -1.0016670227050781,
        0.8042730093002319
      ],
      "type": "VEC3"
    },
    {
      "bufferView": 2,
      "byteOffset": 295632,
      "componentType": 5126,
      "count": 114,
      "max": [
        0.9999995231628418,
        1.0,
        0.3106120526790619
      ],
      "min": [
        -0.9999995231628418,
        -0.950536847114563,
        -0.0
      ],
      "type": "VEC3"
    },
    {
      "bufferView": 1,
      "byteOffset": 98088,
      "componentType": 5126,
      "count": 114,
      "max": [
        0.9909390211105347,
        1.002195954322815
      ],
      "min": [
        0.005993000231683254,
        0.006171000190079212
      ],
      "type": "VEC2"
    },
    {
      "bufferView": 0,
      "byteOffset": 163440,
      "componentType": 5125,
      "count": 282,
      "type": "SCALAR"
    },
    {
      "bufferView": 2,
      "byteOffset": 297000,
      "componentType": 5126,
      "count": 304,
      "max": [
        0.4532110095024109,
        1.4518489837646484,
        1.2792199850082397
      ],
      "min": [
        -0.4532110095024109,
        -1.4166569709777832,
        0.28087499737739563
      ],
      "type": "VEC3"
    },
    {
      "bufferView": 2,
      "byteOffset": 300648,
      "componentType": 5126,
      "count": 304,
      "max": [
        1.0,
        0.9980177283287048,
        1.0
      ],
      "min": [
        -1.0,
        -1.0,
        -1.0
      ],
      "type": "VEC3"
    },
    {
      "bufferView": 1,
      "byteOffset": 99000,
      "componentType": 5126,
      "count": 304,
      "max": [
        1.0,
        0.9884170293807983
      ],
      "min": [
        0.0,
        0.009999999776482582
      ],
      "type": "VEC2"
    },
    {
      "bufferView": 0,
      "byteOffset": 164568,
      "componentType": 5125,
      "count": 1338,
      "type": "SCALAR"
    }
  ],
  "asset": {
    "extras": {
      "author": "vmek3d (https://sketchfab.com/vmek3d)",
      "license": "CC-BY-4.0 (http://creativecommons.org/licenses/by/4.0/)",
      "source": "https://sketchfab.com/3d-models/free-delivery-truck-vehicle-low-poly-50cdb3c674c84224b6ebfe471ca404fe",
      "title": "Free Delivery Truck  Vehicle | Low Poly"
    },
    "generator": "Sketchfab-15.85.0",
    "version": "2.0"
  },
  "bufferViews": [
    {
      "buffer": 0,
      "byteLength": 169920,
      "name": "floatBufferViews",
      "target": 34963
    },
    {
      "buffer": 0,
      "byteLength": 101432,
      "byteOffset": 169920,
      "byteStride": 8,
      "name": "floatBufferViews",
      "target": 34962
    },
    {
      "buffer": 0,
      "byteLength": 304296,
      "byteOffset": 271352,
      "byteStride": 12,
      "name": "floatBufferViews",
      "target": 34962
    }
  ],
  "buffers": [
    {
      "byteLength": 575648,
      "uri": "scene.bin"
    }
  ],
  "extensionsUsed": [
    "KHR_materials_specular",
    "KHR_materials_emissive_strength"
  ],
  "images": [
    {
      "uri": "textures/Window_texture.001_baseColor.png"
    }
  ],
  "materials": [
    {
      "doubleSided": true,
      "name": "Black",
      "pbrMetallicRoughness": {
        "baseColorFactor": [
          0.0,
          0.0,
          0.0,
          1.0
        ],
        "metallicFactor": 0.0
      }
    },
    {
      "doubleSided": true,
      "extensions": {
        "KHR_materials_specular": {
          "specularColorFactor": [
            1.0,
            1.0,
            1.0
          ],
          "specularFactor": 0.4322678843226788
        }
      },
      "name": "Chasis_gray.001",
      "pbrMetallicRoughness": {
        "baseColorFactor": [
          0.422518,
          0.422393,
          0.422393,
          1.0
        ],
        "metallicFactor": 0.2861491628614916,
        "roughnessFactor": 0.7732115677321156
      }
    },
    {
      "doubleSided": true,
      "emissiveFactor": [
        1.0,
        0.11107399999999996,
        0.0
      ],
      "extensions": {
        "KHR_materials_emissive_strength": {
          "emissiveStrength": 10.0
        }
      },
      "name": "Lights_orange.001",
      "pbrMetallicRoughness": {
        "baseColorFactor": [
          1.0,
          0.252234,
          0.0,
          1.0
        ],
        "metallicFactor": 0.0,
        "roughnessFactor": 0.9145113529510382
      }
    },
    {
      "doubleSided": true,
      "emissiveFactor": [
        1.0,
        1.0,
        1.0
      ],
      "extensions": {
        "KHR_materials_emissive_strength": {
          "emissiveStrength": 10.0
        }
      },
      "name": "Lights_white.001",
      "pbrMetallicRoughness": {
        "baseColorFactor": [
          0.800219,
          0.7530269999999999,
          0.5744329999999997,
          1.0
        ],
        "metallicFactor": 0.0,
        "roughnessFactor": 0.7777239485772789
      }
    },
    {
      "doubleSided": true,
      "name": "Metal.001",
      "pbrMetallicRoughness": {
        "baseColorFactor": [
          0.738848,
          0.738848,
          0.738848,
          1.0
        ],
        "roughnessFactor": 0.1704718417047184
      }
    },
    {
      "doubleSided": true,
      "name": "Metal_dark.001",
      "pbrMetallicRoughness": {
        "baseColorFactor": [
          0.105278,
          0.105278,
          0.105278,
          1.0
        ],
        "roughnessFactor": 0.213089802130898
      }
    },
    {
      "doubleSided": true,
      "name": "Metal_gray.001",
      "pbrMetallicRoughness": {
        "baseColorFactor": [
          0.558615,
          0.558615,
          0.558615,
          1.0
        ],
        "roughnessFactor": 0.121765601217656
      }
    },
    {
      "doubleSided": true,
      "name": "Tires.001",
      "pbrMetallicRoughness": {
        "baseColorFactor": [
          0.0531781,
          0.0531781,
          0.0531781,
          1.0
        ],
        "metallicFactor": 0.0
      }
    },
    {
      "doubleSided": true,
      "name": "White.001",
      "pbrMetallicRoughness": {
        "baseColorFactor": [
          0.49629,
          0.453275,
          0.394799,
          1.0
        ],
        "metallicFactor": 0.0
      }
    },
    {
      "doubleSided": true,
      "name": "Window_texture.001",
      "pbrMetallicRoughness": {
        "baseColorTexture": {
          "index": 0
        },
        "metallicFactor": 0.0,
        "roughnessFactor": 0.0
      }
    },
    {
      "doubleSided": true,
      "emissiveFactor": [
        1.0,
        0.0,
        0.0
      ],
      "extensions": {
        "KHR_materials_emissive_strength": {
          "emissiveStrength": 10.0
        }
      },
      "name": "red_lights.001",
      "pbrMetallicRoughness": {
        "baseColorFactor": [
          1.0,
          0.0,
          0.0009534010000000037,
          1.0
        ],
        "metallicFactor": 0.0,
        "roughnessFactor": 0.9365944127653664
      }
    }
  ],
  "meshes": [
    {
      "name": "Object_0",
      "primitives": [
        {
          "attributes": {
            "NORMAL": 1,
            "POSITION": 0,
            "TEXCOORD_0": 2
          },
          "indices": 3,
          "material": 0,
          "mode": 4
        }
      ]
    },
    {
      "name": "Object_1",
      "primitives": [
        {
          "attributes": {
            "NORMAL": 5,
            "POSITION": 4,
            "TEXCOORD_0": 6
          },
          "indices": 7,
          "material": 1,
          "mode": 4
        }
      ]
    },
    {
      "name": "Object_2",
      "primitives": [
        {
          "attributes": {
            "NORMAL": 9,
            "POSITION": 8,
            "TEXCOORD_0": 10
          },
          "indices": 11,
          "material": 2,
          "mode": 4
        }
      ]
    },
    {
      "name": "Object_3",
      "primitives": [
        {
          "attributes": {
            "NORMAL": 13,
            "POSITION": 12,
            "TEXCOORD_0": 14
          },
          "indices": 15,
          "material": 3,
          "mode": 4
        }
      ]
    },
    {
      "name": "Object_4",
      "primitives": [
        {
          "attributes": {
            "NORMAL": 17,
            "POSITION": 16,
            "TEXCOORD_0": 18
          },
          "indices": 19,
          "material": 4,
          "mode": 4
        }
      ]
    },
    {
      "name": "Object_5",
      "primitives": [
        {
          "attributes": {
            "NORMAL": 21,
            "POSITION": 20,
            "TEXCOORD_0": 22
          },
          "indices": 23,
          "material": 5,
          "mode": 4
        }
      ]
    },
    {
      "name": "Object_6",
      "primitives": [
        {
          "attributes": {
            "NORMAL": 25,
            "POSITION": 24,
            "TEXCOORD_0": 26
          },
          "indices": 27,
          "material": 6,
          "mode": 4
        }
      ]
    },
    {
      "name": "Object_7",
      "primitives": [
        {
          "attributes": {
            "NORMAL": 29,
            "POSITION": 28,
            "TEXCOORD_0": 30
          },
          "indices": 31,
          "material": 7,
          "mode": 4
        }
      ]
    },
    {
      "name": "Object_8",
      "primitives": [
        {
          "attributes": {
            "NORMAL": 33,
            "POSITION": 32,
            "TEXCOORD_0": 34
          },
          "indices": 35,
          "material": 8,
          "mode": 4
        }
      ]
    },
    {
      "name": "Object_9",
      "primitives": [
        {
          "attributes": {
            "NORMAL": 37,
            "POSITION": 36,
            "TEXCOORD_0": 38
          },
          "indices": 39,
          "material": 9,
          "mode": 4
        }
      ]
    },
    {
      "name": "Object_10",
      "primitives": [
        {
          "attributes": {
            "NORMAL": 41,
            "POSITION": 40,
            "TEXCOORD_0": 42
          },
          "indices": 43,
          "material": 10,
          "mode": 4
        }
      ]
    }
  ],
  "nodes": [
    {
      "children": [
        1
      ],
      "matrix": [
        1.3364814519882202,
        0.0,
        0.0,
        0.0,
        0.0,
        2.9675849599635656e-16,
        -1.3364814519882202,
        0.0,
        0.0,
        1.3364814519882202,
        2.9675849599635656e-16,
        0.0,
        0.0,
        0.0,
        0.0,
        1.0
      ],
      "name": "Sketchfab_model"
    },
    {
      "children": [
        2,
        3,
        4,
        5,
        6,
        7,
        8,
        9,
        10,
        11,
        12
      ],
      "name": "OBJ_truck.obj.cleaner.materialmerger.gles"
    },
    {
      "mesh": 0,
      "name": "Object_2"
    },
    {
      "mesh": 1,
      "name": "Object_3"
    },
    {
      "mesh": 2,
      "name": "Object_4"
    },
    {
      "mesh": 3,
      "name": "Object_5"
    },
    {
      "mesh": 4,
      "name": "Object_6"
    },
    {
      "mesh": 5,
      "name": "Object_7"
    },
    {
      "mesh": 6,
      "name": "Object_8"
    },
    {
      "mesh": 7,
      "name": "Object_9"
    },
    {
      "mesh": 8,
      "name": "Object_10"
    },
    {
      "mesh": 9,
      "name": "Object_11"
    },
    {
      "mesh": 10,
      "name": "Object_12"
    }
  ],
  "samplers": [
    {
      "magFilter": 9729,
      "minFilter": 9987,
      "wrapS": 10497,
      "wrapT": 10497
    }
  ],
  "scene": 0,
  "scenes": [
    {
      "name": "Sketchfab_Scene",
      "nodes": [
        0
      ]
    }
  ],
  "textures": [
    {
      "sampler": 0,
      "source": 0
    }
  ]
}
